<svg xmlns="http://www.w3.org/2000/svg" viewBox="0 0 78.933 63.279"><defs><style>.a,.b{fill:none;stroke:#303030;stroke-linecap:round;stroke-linejoin:round;stroke-miterlimit:10;}.a{stroke-width:4.7px;}.b{stroke-width:2.7px;}</style></defs><g transform="translate(-8.206 -11.041)"><g transform="translate(10.556 13.391)"><path class="a" d="M79.643,65.625H15.7a5.146,5.146,0,0,1-5.146-5.146V22.141A5.146,5.146,0,0,1,15.7,16.995H79.643a5.146,5.146,0,0,1,5.146,5.146V60.479A5.146,5.146,0,0,1,79.643,65.625Z" transform="translate(-10.556 -7.046)"/><line class="a" x2="74.233" transform="translate(0 24.602)"/><path class="a" d="M19.236,23.34V19.808a6.431,6.431,0,0,1,6.417-6.417H40.986A6.431,6.431,0,0,1,47.4,19.808V23.34" transform="translate(4.728 -13.391)"/></g><line class="b" y2="9.804" transform="translate(18.661 45.164)"/><line class="b" y2="2.55" transform="translate(18.661 59.288)"/></g></svg>