<svg xmlns="http://www.w3.org/2000/svg" viewBox="0 0 84.479 72.786"><g transform="translate(-60.239 -87.334)"><path d="M143.429,101.839l-40.3-14.392a1.943,1.943,0,0,0-1.306,0l-40.3,14.392a1.942,1.942,0,0,0,.039,3.671l16.321,5.442v18.966a1.942,1.942,0,0,0,1.405,1.866l22.648,6.517a1.94,1.94,0,0,0,1.074,0l7.131-2.052a1.942,1.942,0,1,0-1.074-3.733l-6.594,1.9-20.706-5.958V112.247l20.092,6.7a1.94,1.94,0,0,0,1.228,0l3.608-1.2h0l3.039-1.013a1.942,1.942,0,1,0-1.229-3.684l-6.033,2.011-18.057-6.021L68.131,103.6l34.347-12.267L136.826,103.6l-12.313,4.105h0l-1.52.507-1.253.418h0l-1.942.648a1.942,1.942,0,1,0,1.229,3.684l2.159-.72v16.209l-2.42.7a1.942,1.942,0,1,0,1.074,3.733l3.825-1.1a1.942,1.942,0,0,0,1.405-1.866V110.952l16.321-5.442a1.942,1.942,0,0,0,.039-3.671Z"/><path d="M263.876,158.821c0-.045,0-.09-.007-.135s-.009-.064-.014-.1-.008-.06-.014-.09-.016-.071-.025-.106-.013-.052-.02-.078-.023-.068-.035-.1-.018-.052-.029-.078-.027-.06-.041-.09-.026-.056-.04-.084-.03-.051-.044-.077-.034-.058-.053-.087-.033-.046-.05-.07-.04-.056-.061-.082-.043-.049-.065-.074-.039-.045-.061-.067-.071-.068-.108-.1l-.03-.028,0,0,0,0-12.986-10.8a1.942,1.942,0,1,0-2.484,2.986l12.294,10.229V194.21a4.743,4.743,0,0,0-3.781,4.638v2.638a4.74,4.74,0,0,0,4.735,4.735h2.638a4.74,4.74,0,0,0,4.735-4.735v-2.638a4.74,4.74,0,0,0-4.443-4.725V158.873C263.878,158.855,263.876,158.838,263.876,158.821Zm.561,40.028v2.638a.852.852,0,0,1-.851.851h-2.638a.852.852,0,0,1-.851-.851v-2.638a.852.852,0,0,1,.851-.851h2.638A.852.852,0,0,1,264.437,198.848Z" transform="translate(-146.463 -46.101)"/></g></svg>