<svg xmlns="http://www.w3.org/2000/svg" viewBox="0 0 61 67.932"><defs><style>.a{fill:rgba(2,0,0,0.2);fill-rule:evenodd;}</style></defs><g transform="translate(-402 -1591.909)"><path d="M36.532,87.478V66.88a.374.374,0,0,1,.4-.4H47.86a.374.374,0,0,1,.4.4v20.6h18.7a5.985,5.985,0,0,0,5.942-5.942V48.1a8.138,8.138,0,0,0-2.3-5.545L46.83,21.407a6.511,6.511,0,0,0-8.952,0L14.271,42.559l-.079.079a7.66,7.66,0,0,0-2.3,5.545V81.615a5.985,5.985,0,0,0,5.942,5.942h18.7ZM17.439,81.536V48.1a2.164,2.164,0,0,1,.634-1.505L41.681,25.527l.079-.079a.962.962,0,0,1,1.268,0L66.715,46.6a2.164,2.164,0,0,1,.634,1.505V81.536a.374.374,0,0,1-.4.4H53.8V66.88a5.985,5.985,0,0,0-5.942-5.942H36.928a5.985,5.985,0,0,0-5.942,5.942V81.932H17.836A.374.374,0,0,1,17.439,81.536Z" transform="translate(390.106 1572.284)"/><path class="a" d="M34.737,91.46,18.894,93.472v3.387H34.959" transform="translate(388.651 1557.357)"/><path class="a" d="M61.345,95.724H77.61V86L61.275,88.074" transform="translate(379.845 1558.492)"/></g></svg>