<svg xmlns="http://www.w3.org/2000/svg" viewBox="0 0 74.422 99.415"><g transform="translate(-53.223)"><path d="M303.824,173.218c.678-.264.778-.695.778-.928a.587.587,0,0,0-.587-.586h0a.587.587,0,0,0-.553.393,2.026,2.026,0,0,1-.828.146,1.97,1.97,0,0,1-.828-.142.576.576,0,0,0-.555-.391.587.587,0,0,0-.586.588c0,.233.1.663.782.925a3.385,3.385,0,0,0,1.18.194h.01A3.392,3.392,0,0,0,303.824,173.218Z" transform="translate(-189.343 -131.39)"/><path d="M297.941,160.094a.593.593,0,0,0-.171-.413.607.607,0,0,0-.831,0,.587.587,0,0,0,0,.829.59.59,0,0,0,.831,0A.6.6,0,0,0,297.941,160.094Z" transform="translate(-186.361 -122.063)"/><path d="M316.925,160.637a.585.585,0,0,0,.585-.587.589.589,0,0,0-.171-.416.606.606,0,0,0-.829,0,.587.587,0,0,0,.416,1Z" transform="translate(-201.337 -122.028)"/><path d="M127.6,68.343l-3.152-14.322a.585.585,0,0,0,.164-.574l-1.22-4.622a5.711,5.711,0,0,0-4.131-4.206l-3.04-1.055V43.54a7.912,7.912,0,0,0,3.188-6.6c0-7.369-4.361-7.9-6.119-7.9s-6.119.28-6.119,7.9a7.912,7.912,0,0,0,3.188,6.6v.024l-3.04,1.055c-.041.009-.08.021-.12.031l-3.257-14.7a3.659,3.659,0,0,0,1.552-2.725.706.706,0,0,0-.084-.344c-.13-.213-2.89-4.672-6.678-6.425L98.047,6.968a6.43,6.43,0,0,0-1.81-4.73A9.011,9.011,0,0,0,90.42,0h0A9.011,9.011,0,0,0,84.6,2.239a6.43,6.43,0,0,0-1.81,4.73L82.1,20.453c-3.788,1.754-6.546,6.213-6.678,6.425a.815.815,0,0,0-.084.345,3.661,3.661,0,0,0,1.552,2.724l-1.478,6.674a10.952,10.952,0,0,0-3.042-5.686,7.017,7.017,0,0,0-9.59,0C60.366,33.154,59.141,37,59.141,42.367a.587.587,0,0,0,.587.587h4.429a5.133,5.133,0,0,0,.49.463v.147l-3.04,1.055a5.718,5.718,0,0,0-4.134,4.223.587.587,0,0,0,.185.561l.161.143-4.549,18.8a1.914,1.914,0,0,0,1.45,2.286,1.941,1.941,0,0,0,.422.047A1.916,1.916,0,0,0,57,69.212l4.543-13.081.209,1.695c-.766,1.32-5.2,9.37-5.2,18.674a.587.587,0,0,0,.587.587h3.5a137.378,137.378,0,0,0,2.026,18.489,4.056,4.056,0,0,0-2.84,3.128.587.587,0,0,0,.574.711H66.3a.587.587,0,0,0,.587-.587l-.006-21.74h1.394l-.006,21.74a.587.587,0,0,0,.587.587h5.909a.587.587,0,0,0,.574-.711,4.055,4.055,0,0,0-2.84-3.128,137.417,137.417,0,0,0,2.026-18.489h1.789c-.8,10.442-.973,18.907-.975,18.993a.587.587,0,0,0,.587.6h8.021a3.1,3.1,0,0,0-.757,2.149.587.587,0,0,0,.587.587H97.059a.587.587,0,0,0,.587-.587,3.1,3.1,0,0,0-.758-2.149h8.021a.587.587,0,0,0,.587-.6c0-.147-.305-14.856-1.967-29.579l3.019-9.972a1.186,1.186,0,0,0,.269-.084l.214,11.434-1.42,13.349a.587.587,0,0,0,.584.649h.783l.71,13.684a2.424,2.424,0,0,0-1.336.727,3.811,3.811,0,0,0-.835,2.574.587.587,0,0,0,.586.552h5.909a.586.586,0,0,0,.587-.587l-.006-16.96a.587.587,0,0,0,.473-.525l.226-2.586.228,2.586a.587.587,0,0,0,.467.523l-.006,16.961a.587.587,0,0,0,.587.587h5.909a.587.587,0,0,0,.586-.552,3.81,3.81,0,0,0-.835-2.574,2.425,2.425,0,0,0-1.336-.727l.71-13.684h.783a.587.587,0,0,0,.584-.649l-1.42-13.349.214-11.434a1.185,1.185,0,0,0,.269.084L123.867,69.2a1.916,1.916,0,0,0,1.859,1.474,1.937,1.937,0,0,0,.421-.047,1.914,1.914,0,0,0,1.451-2.283Zm-4.236-15.025-2.958,1.75-.554-1.728,1.88-5.508a4.783,4.783,0,0,1,.515,1.253C122.248,49.095,123.363,53.318,123.363,53.318ZM113.3,45.276h-.017a3,3,0,0,1-1.581-.418,1.381,1.381,0,0,1-.419-.4.585.585,0,0,0,.229-.326,5.032,5.032,0,0,0,3.559,0,.584.584,0,0,0,.229.326,1.39,1.39,0,0,1-.419.4A3,3,0,0,1,113.3,45.276Zm-.009-15.061c2.86,0,4.526,1.819,4.875,5.281h-5l-1.21-1.927h0a.577.577,0,0,0-.183-.186.587.587,0,0,0-.809.185l-1.21,1.927h-1.334C108.763,32.034,110.43,30.215,113.29,30.215Zm-4.945,6.729c0-.093,0-.183,0-.274h1.725a.587.587,0,0,0,.5-.275l.885-1.41.885,1.41a.587.587,0,0,0,.5.275h5.395c0,.091,0,.181,0,.274,0,3.5-2.218,6.342-4.945,6.342S108.344,40.441,108.344,36.944Zm1.825,7.928a2.432,2.432,0,0,0,.9.974,4.141,4.141,0,0,0,2.214.6h.018a4.141,4.141,0,0,0,2.214-.6,2.425,2.425,0,0,0,.9-.974s2.537.879,2.558.884a4.113,4.113,0,0,1,1.9.985l-2.186,6.4c0,.009-.031.167-.031.179l-.262,14H108.2l-.262-14c0-.012-.028-.169-.031-.179l-2.186-6.4a4.111,4.111,0,0,1,1.9-.985C107.632,45.752,110.169,44.872,110.169,44.872Zm-7.8,21.409v0l-.786,2.6a1.445,1.445,0,0,1-.337.506.707.707,0,0,1-.559.1.74.74,0,0,1-.56-.886l2.268-10.307v0l.8-3.617,2.285,1.351ZM96.107,38.52H84.727a19.321,19.321,0,0,1-1.412-5.938,34.641,34.641,0,0,0,6.515.687v.405a.587.587,0,0,0,1.174,0V33.27a34.621,34.621,0,0,0,6.515-.687A19.37,19.37,0,0,1,96.107,38.52Zm-22.7,19.306.209-1.695,3.669,10.563-.046.421A42.361,42.361,0,0,0,73.407,57.826Zm-10.531-.461-.13-1.054h9.665l-.13,1.054ZM73.94,53.5l.131-1.064,2.272-2.014,4.4,18.17a.741.741,0,0,1-1.445.323.613.613,0,0,0-.018-.065S73.949,53.522,73.94,53.5ZM77.666,50.9l4.8-15.773a21.8,21.8,0,0,0,1.216,3.943c-1.9,3.332-3.534,8.908-4.863,16.6Zm20.7-15.773,4.519,14.843-.918,3.479a.586.586,0,0,0,.164.574l-.227,1.029c-1.308-7.373-2.9-12.74-4.754-15.982A21.788,21.788,0,0,0,98.367,35.126Zm7.807,19.942-2.958-1.75,1.116-4.231a4.792,4.792,0,0,1,.515-1.255l1.88,5.508Zm-.086-10a5.669,5.669,0,0,0-2.6,2.861L98.733,32.3a20.8,20.8,0,0,0,2.139-.674,13.238,13.238,0,0,0,2.026-.956ZM104.31,27.336c-.236,2.229-5.6,4.641-13.306,4.759v-2.15h.906a.587.587,0,0,0,0-1.174H91V27.638c1.153-1.053,4.723-4.447,5.437-6.7l.52.125C100.636,21.931,103.73,26.445,104.31,27.336ZM90.417,3.269a6.969,6.969,0,0,1,3.4.729,5.659,5.659,0,0,1,.575,2.012H86.447A5.659,5.659,0,0,1,87.022,4,6.968,6.968,0,0,1,90.417,3.269ZM93.4,19V16.051a6.372,6.372,0,0,0,1.171-1.44v4.675ZM90.417,16.1a3.727,3.727,0,0,1-2.088-.807,6.713,6.713,0,0,1-2.068-5.129V9.527a.587.587,0,0,0,.636.147,3.126,3.126,0,0,1,1.963,0,.587.587,0,1,0,.418-1.1,4.289,4.289,0,0,0-2.8,0,.583.583,0,0,0-.218.149s.016-.984.059-1.541h8.195c.043.557.059,1.541.059,1.541a.58.58,0,0,0-.218-.149,4.289,4.289,0,0,0-2.8,0,.587.587,0,1,0,.418,1.1,3.128,3.128,0,0,1,1.965,0,.583.583,0,0,0,.634-.149v.635a6.713,6.713,0,0,1-2.069,5.129A3.725,3.725,0,0,1,90.417,16.1Zm-2.982-.045V19l-1.171.281V14.61A6.371,6.371,0,0,0,87.436,16.05Zm.724,3.988a.587.587,0,0,0,.45-.571v-2.62a4.086,4.086,0,0,0,3.615,0v2.62a.587.587,0,0,0,.45.571l2.634.632c-.492,1.466-3.028,4.181-4.891,5.912-1.864-1.731-4.4-4.447-4.891-5.912Zm-4.2-13.025c0-.01,0-.02,0-.03,0-5.741,6.191-5.809,6.455-5.809h0a7.9,7.9,0,0,1,4.989,1.9,5.3,5.3,0,0,1,1.465,3.914c0,.01,0,.02,0,.03l.66,12.992c-.1-.028-1.79-.438-1.79-.438l0-11.025h0c0-.383-.031-3.789-.967-5.209-.442-.671-2.44-1.238-4.364-1.238s-3.922.567-4.364,1.238c-.935,1.421-.966,4.826-.967,5.209h0l0,11.025s-1.689.409-1.79.438ZM76.524,27.336c.579-.891,3.668-5.4,7.352-6.27l.517-.124c.714,2.249,4.284,5.643,5.437,6.7v1.133h-.905a.587.587,0,1,0,0,1.174h.905V32.1C82.129,31.977,76.761,29.565,76.524,27.336Zm1.411,3.332a13.249,13.249,0,0,0,2.026.956A20.8,20.8,0,0,0,82.1,32.3L77.357,47.882A5.646,5.646,0,0,0,74.75,45.05l.464-2.1h.214a.587.587,0,0,0,.587-.587c0-.9-.037-1.744-.105-2.554ZM67.579,46.635c-1.746,0-2.067-.99-2.118-2.114a.585.585,0,0,0,.343-.407,4.721,4.721,0,0,0,3.549,0,.585.585,0,0,0,.344.407C69.646,45.642,69.327,46.635,67.579,46.635ZM63.4,36.585H66.4a.587.587,0,0,0,.524-.322l.65-1.286.65,1.286a.587.587,0,0,0,.524.322h3.009c0,.119.005.238.005.36a8.177,8.177,0,0,1-1.441,4.99,3.467,3.467,0,0,1-5.5,0,8.177,8.177,0,0,1-1.441-4.99C63.39,36.823,63.392,36.7,63.4,36.585Zm7.114,6.979v-.147a5.1,5.1,0,0,0,.49-.463h3.013l-.374,1.688C73.609,44.635,70.51,43.564,70.51,43.564ZM60.32,41.78c.083-4.7,1.147-8.071,3.234-9.959a5.918,5.918,0,0,1,4.037-1.608A6.1,6.1,0,0,1,71.6,31.82c2.1,1.876,3.151,5.262,3.234,9.959H71.844a9.972,9.972,0,0,0,1.1-4.836c0-.338-.007-.669-.029-.982a.563.563,0,0,0-.586-.551H69.113l-1.011-2a.585.585,0,0,0-1.046,0h0l-1.011,2H62.83a.538.538,0,0,0-.586.551c-.031.307-.029.644-.029.982a9.972,9.972,0,0,0,1.1,4.836H60.32Zm1.58,3.976c.021,0,2.412-.833,2.412-.833a3.291,3.291,0,0,0,6.532,0s2.392.829,2.412.833a4.449,4.449,0,0,1,3.188,3.012l-3.318,2.94a.587.587,0,0,0-.193.367l-.378,3.061H62.6l-.378-3.061a.587.587,0,0,0-.193-.367l-3.316-2.939A4.481,4.481,0,0,1,61.9,45.756Zm-6.021,23.1a1.478,1.478,0,0,1-.344.528.741.741,0,0,1-1.122-.776l4.4-18.181,2.272,2.014.131,1.064C61.209,53.522,55.879,68.856,55.879,68.856ZM62.7,58.54h9.764c.85,1.512,4.79,8.959,4.968,17.374h-19.7C57.907,67.5,61.846,60.052,62.7,58.54Zm-1.477,39.7a2.4,2.4,0,0,1,2.126-1.562h2.367v1.562Zm4.493-2.736H63.837a136.925,136.925,0,0,1-2.031-18.418h3.9Zm8.229,2.736h-4.5V96.679h2.367A2.388,2.388,0,0,1,73.941,98.241Zm-2.621-2.736H69.445l0-18.418h3.9A137,137,0,0,1,71.321,95.505Zm15.462,1.174H89.83v1.562h-5.4C84.8,96.742,86.56,96.681,86.782,96.679Zm9.623,1.562H91V96.679h3.048C94.274,96.681,96.038,96.742,96.405,98.241ZM76.527,95.505c.054-2.111.282-9.558.965-18.418h.53a.587.587,0,0,0,.587-.587,32.706,32.706,0,0,0-.555-5.882q.065-.661.132-1.315a1.911,1.911,0,0,0,1.829,1.37,1.937,1.937,0,0,0,.421-.047,1.914,1.914,0,0,0,1.448-2.3l-2.353-9.723c1.377-8.959,3.107-15.318,5.147-18.914H96.156c2,3.53,3.708,9.728,5.073,18.432L98.981,68.341a1.914,1.914,0,0,0,1.45,2.285,1.939,1.939,0,0,0,.422.047,1.916,1.916,0,0,0,1.8-1.287c1.227,12.022,1.58,23.422,1.65,26.119H76.527Zm34.892-13.626,0,13.626H108.86l-.706-13.626Zm-4.7,16.362a2.134,2.134,0,0,1,.488-1.151,1.424,1.424,0,0,1,1.093-.411h3.12v1.562Zm12.647-1.151a2.134,2.134,0,0,1,.488,1.151h-4.7V96.679h3.12A1.424,1.424,0,0,1,119.369,97.09Zm-1.649-1.585h-2.563l0-13.626h3.265Zm-3.078-14.8-.768-8.712h0a.586.586,0,0,0-1.168,0l-.762,8.711h-5.1l1.3-12.212h10.286l1.3,12.212Zm11.713-11.549a.741.741,0,0,1-1.348-.235c0-.014-.007-.028-.011-.042L121.1,56.019l2.284-1.351,3.065,13.93A.734.734,0,0,1,126.355,69.156Z" transform="translate(0 0)"/><path d="M105.977,172.026c0,.233.1.663.782.925a3.385,3.385,0,0,0,1.18.194h.01a3.386,3.386,0,0,0,1.189-.2c.678-.264.778-.695.778-.928a.587.587,0,0,0-.587-.586h0a.587.587,0,0,0-.553.393,2.025,2.025,0,0,1-.828.146,1.865,1.865,0,0,1-.828-.142.587.587,0,0,0-.553-.391h0A.587.587,0,0,0,105.977,172.026Z" transform="translate(-40.368 -131.181)"/><path d="M102.665,160.684a.586.586,0,0,0,.416-1,.606.606,0,0,0-.829,0,.581.581,0,0,0-.174.413.587.587,0,0,0,.174.416A.578.578,0,0,0,102.665,160.684Z" transform="translate(-37.384 -122.065)"/><path d="M122.234,160.679a.589.589,0,0,0,.416-.171.59.59,0,0,0,0-.831.612.612,0,0,0-.831,0,.6.6,0,0,0-.171.416.6.6,0,0,0,.171.416A.588.588,0,0,0,122.234,160.679Z" transform="translate(-52.358 -122.061)"/><path d="M206.733,54.42a.587.587,0,0,0-1.159-.131,2.547,2.547,0,0,1-2.021,0,.587.587,0,0,0-1.159.131c0,.737.892,1.252,2.169,1.252S206.733,55.157,206.733,54.42Z" transform="translate(-114.147 -41.193)"/><path d="M199.868,42.427a.583.583,0,0,0-.171-.413.606.606,0,0,0-.829,0,.579.579,0,0,0-.171.413.585.585,0,0,0,.171.416.587.587,0,0,0,.829,0A.587.587,0,0,0,199.868,42.427Z" transform="translate(-111.318 -32.024)"/><path d="M220.164,43.013a.586.586,0,0,0,.416-1,.609.609,0,0,0-.831,0,.594.594,0,0,0-.171.416.586.586,0,0,0,.174.413A.579.579,0,0,0,220.164,43.013Z" transform="translate(-127.295 -32.024)"/></g></svg>