<svg xmlns="http://www.w3.org/2000/svg" viewBox="0 0 88.736 60.282"><path d="M50.842,69.343l7.91-20.236a5.886,5.886,0,0,1,11.067.285L81.009,83.046,93.086,54.318a5.888,5.888,0,0,1,5.208-3.6,5.784,5.784,0,0,1,5.459,3.2l7.874,15.422H119.6a5.885,5.885,0,1,1,0,11.77H108.022a5.883,5.883,0,0,1-5.241-3.207L99.03,70.555,85.791,102.041a5.887,5.887,0,0,1-5.423,3.6c-.076,0-.153,0-.23-.006a5.877,5.877,0,0,1-5.358-4.023L63.786,68.557,60.343,77.37c-2.351,4.072-5.482,3.743-5.482,3.743l-11.384,0s-6.731.5-6.731-5.885c0-6.106,6.731-5.888,6.731-5.888Z" transform="translate(-36.747 -45.363)"/></svg>