<?xml version="1.0" encoding="utf-8"?>
<!-- Generator: Adobe Illustrator 23.0.1, SVG Export Plug-In . SVG Version: 6.00 Build 0)  -->
<svg version="1.1" id="Layer_1" xmlns="http://www.w3.org/2000/svg" xmlns:xlink="http://www.w3.org/1999/xlink" x="0px" y="0px"
	 viewBox="0 0 1920 1440" style="enable-background:new 0 0 1920 1440;" xml:space="preserve">
<style type="text/css">
	.st0{fill:url(#SVGID_1_);}
	.st1{fill:#0D1317;}
</style>
<title>bg</title>
<linearGradient id="SVGID_1_" gradientUnits="userSpaceOnUse" x1="146.4205" y1="-146.4196" x2="1773.5795" y2="1480.7495">
	<stop  offset="6.000000e-02" style="stop-color:#0D1317"/>
	<stop  offset="1" style="stop-color:#2A4455"/>
</linearGradient>
<rect class="st0" width="1920" height="1334.3"/>
<path class="st1" d="M0,869.2c0,0,3.9,1.3,4.8,0s18.4-8.2,20-8.7s9.1-6.2,14.4-8.9s18.5-8,23.1-10.7s8.4-4.9,15.1-8.2
	c5-2.6,10.2-4.7,15.6-6.2c6.9-2.2,9.3-3.3,18.7-5.3c6.2-1.2,12.4-2.7,18.4-4.7c5.6-1.8,4.2-2.2,12-3.8s6.9-2,15.8-3.6
	s9.8-1.3,15.3-2.7s9.6-3.1,12.9-4s7.1-2.5,14.2-2.9s15.6-1.3,19.3-1.8c2.2-0.3,4.4-0.3,6.7,0l13.3-3.1c0,0,11.1-0.9,13.8-1.3
	c4.1-0.9,8.3-1.6,12.5-2c9.5-1.1,6.4-0.7,18.7-0.7s8-0.7,16.9,0s10.9,0.2,17.8,0.7s3.8-1.5,12-1s9.8,3,14,0s5.1-5,7.6-6.4
	s4-1.8,7.8-3.8s3.1-2.7,9.3-3.8s4.7-1.8,11.5-2.2c4.6-0.4,9.2-0.5,13.8-0.2c7.1,0.2,14.7-1.1,19.6,0.5s6.7,2,9.8,3.8
	s4.4,2.2,5.3,2.9s0.9,2.2,5.3,1.8c4.5-0.6,9-0.7,13.6-0.2c5.8,0.7,13.8,1.1,16,2s2.2,2,5.8,2.7s6,1.5,11.1,1.5s17.3-0.9,24-1.3
	s3.3-1.8,12.9-0.7s10.9-0.7,14.9,2.7s2.5,3.5,7.3,5.8s4.7,4,10.4,3.1s4.7-0.7,13.3-2.5s3.8-1.5,14.9-3.8s4-1.8,15.6-3.3
	s10.7-1.5,14.4-2s9.9,0.4,13.8-0.2s12.7-0.3,18.7,0.6c7.6,1,15.2,1.2,22.8,0.6c7.7-0.6,5.3-2.4,13.6,0s9.2,2.4,20.7,2.7
	s11.6,0.3,21.6-0.9s7.7,0,16.6-2.4s11-2.7,22.2-5.6s10.4-3,19.3-5.6s10.1-1.8,17.2-5s8-4.2,15.1-7.4s9.8-4.2,9.8-4.2l17.8-2.1
	c0,0,4.2-0.3,12.7,0c5.7,0.3,11.5,0.3,17.2,0c8-0.3,17.8,0.3,21.3,0s18.1-2.1,19.5-2.1s6.2-0.6,9.2,1.8c3.1,2.7,6.7,4.7,10.7,5.9
	c5.3,1.8,21.9,0.3,25.8,0s5-1.5,11-0.3s5.9,0,12.4,3.6s4.7,2.4,10.4,4.7s9.8,3.8,13.6,4.4s4.5-2.1,8.9,1.2s5.9,4.4,9.5,4.7
	c3.5,0.3,3,1.8,18.7-0.9s17.2-4.2,24-4.7s6.5-1.5,13.3-1.5s2.7-1.2,14.2,0.6s9.2,3.3,19,3.8s10.1,0,20.4,0.6s10.1-0.6,19.6,0.9
	s11,1.5,12.4,2.1s21.6,3,25.2,2.7s6.5-1.5,13-0.3s17.2,3,28.2,5s19.8,5.3,25.8,3.8s14.5-1.2,21-2.1s4.4,0,17.8,0s10.7-3.3,23.7,0
	s15.4,4.7,24.9,5.6s8.6,1.5,19.6,2.7s17.8,1.5,27.6,3s10.7,2.4,23.4,4.7s14.5,3,25.2,5s19,5.3,23.7,5s4.2,0,12.2-3.5
	s12.2-6.2,16.6-7.1s-2.1-1.5,11.6-2.4s11-1.2,21.6-0.6s11.6,1.2,19.6,1.2h8c0,0,10.4,0,16.9-0.6c7.9-0.8,15.8-1,23.7-0.6
	c10.1,0.6,1.5,1.2,20.4,2.1s29.9,1.5,42.1,1.8s25.2-3.3,35.3,0.6s12.7,4.2,22.2,6.2s8.6,4.2,19.8,5s11.3,0.6,15.4,3.3
	s0,1.2,15.4,0.9s13.3-2.4,22.2,0.9s7.4,2.1,18.1,5.6s7.4,1.8,19,5.6c7.9,2.8,15.4,6.5,22.5,11c0,0,14.2,3.5,21,6.2s21.9,5,24.3,8.9
	s6.5,14.8,7.4,17.2s8.3,16.9,8.9,17.8s14.4,8.6,14.4,8.6v473.3H0V869.2z"/>
<rect y="970.7" class="st1" width="1920" height="469.3"/>
</svg>
