<svg xmlns="http://www.w3.org/2000/svg" viewBox="0 0 1920 478">
  <defs>
    <style>
      .cls-1 {
        fill: #222A68;
      }
    </style>
  </defs>
  <g id="Group_5" data-name="Group 5" transform="translate(0 -1082)">
    <path id="Subtraction_14" data-name="Subtraction 14" class="cls-1" d="M-6813,284a107.69,107.69,0,0,1-22.791-2.432,106.428,106.428,0,0,1-21.1-6.957,107.1,107.1,0,0,1-18.906-10.97,107.811,107.811,0,0,1-16.2-14.473V104.833a107.8,107.8,0,0,1,16.2-14.473,107.1,107.1,0,0,1,18.906-10.97,106.433,106.433,0,0,1,21.1-6.957A107.691,107.691,0,0,1-6813,70a107.78,107.78,0,0,1,21.564,2.174,106.466,106.466,0,0,1,20.085,6.235,106.993,106.993,0,0,1,18.175,9.865,107.724,107.724,0,0,1,15.835,13.066,107.762,107.762,0,0,1,13.066,15.836,107.015,107.015,0,0,1,9.865,18.175,106.5,106.5,0,0,1,6.234,20.085A107.8,107.8,0,0,1-6706,177a107.8,107.8,0,0,1-2.174,21.564,106.5,106.5,0,0,1-6.234,20.085,107.048,107.048,0,0,1-9.865,18.176,107.793,107.793,0,0,1-13.066,15.836,107.73,107.73,0,0,1-15.835,13.066,106.994,106.994,0,0,1-18.175,9.865,106.46,106.46,0,0,1-20.085,6.235A107.779,107.779,0,0,1-6813,284Z" transform="translate(6892 1127)"/>
    <circle id="Ellipse_6" data-name="Ellipse 6" class="cls-1" cx="224" cy="224" r="224" transform="translate(79 1112)"/>
    <circle id="Ellipse_7" data-name="Ellipse 7" class="cls-1" cx="224" cy="224" r="224" transform="translate(891 1090)"/>
    <circle id="Ellipse_8" data-name="Ellipse 8" class="cls-1" cx="143" cy="143" r="143" transform="translate(1249 1114)"/>
    <circle id="Ellipse_12" data-name="Ellipse 12" class="cls-1" cx="107" cy="107" r="107" transform="translate(1469 1229)"/>
    <path id="Subtraction_17" data-name="Subtraction 17" class="cls-1" d="M-6863,512a151.1,151.1,0,0,1-30.23-3.048,149.238,149.238,0,0,1-28.157-8.74,150.031,150.031,0,0,1-25.48-13.83,151.073,151.073,0,0,1-22.2-18.316,151.068,151.068,0,0,1-18.317-22.2,150,150,0,0,1-13.83-25.48,149.28,149.28,0,0,1-8.74-28.157A151.129,151.129,0,0,1-7013,362a151.129,151.129,0,0,1,3.047-30.23,149.28,149.28,0,0,1,8.74-28.157,150,150,0,0,1,13.83-25.48,151.067,151.067,0,0,1,18.317-22.2,151.073,151.073,0,0,1,22.2-18.316,150.031,150.031,0,0,1,25.48-13.83,149.239,149.239,0,0,1,28.157-8.74A151.1,151.1,0,0,1-6863,212a150.342,150.342,0,0,1,40.111,5.423,149.217,149.217,0,0,1,36.008,15.3,150.861,150.861,0,0,1,53.882,54.4V436.882a150.862,150.862,0,0,1-53.882,54.4,149.215,149.215,0,0,1-36.008,15.3A150.343,150.343,0,0,1-6863,512Z" transform="translate(8653 959)"/>
    <path id="Subtraction_15" data-name="Subtraction 15" class="cls-1" d="M-6915,466.742h0a149.557,149.557,0,0,1-39.446-21.832,150.683,150.683,0,0,1-31.006-32.258,149.348,149.348,0,0,1-20.279-40.4A149.9,149.9,0,0,1-7013,326a149.9,149.9,0,0,1,7.268-46.253,149.346,149.346,0,0,1,20.279-40.4,150.682,150.682,0,0,1,31.006-32.258A149.568,149.568,0,0,1-6915,185.258Z" transform="translate(8835 1010)"/>
    <circle id="Ellipse_9" data-name="Ellipse 9" class="cls-1" cx="143" cy="143" r="143" transform="translate(364 1171)"/>
    <circle id="Ellipse_10" data-name="Ellipse 10" class="cls-1" cx="109" cy="109" r="109" transform="translate(545 1148)"/>
    <circle id="Ellipse_11" data-name="Ellipse 11" class="cls-1" cx="151" cy="151" r="151" transform="translate(689 1082)"/>
  </g>
</svg>
